<?xml version="1.0" encoding="UTF-8" standalone="no"?>
<svg xmlns:dc="http://purl.org/dc/elements/1.1/" xmlns:cc="http://creativecommons.org/ns#" xmlns:rdf="http://www.w3.org/1999/02/22-rdf-syntax-ns#" xmlns:svg="http://www.w3.org/2000/svg" xmlns="http://www.w3.org/2000/svg" xmlns:sodipodi="http://sodipodi.sourceforge.net/DTD/sodipodi-0.dtd" xmlns:inkscape="http://www.inkscape.org/namespaces/inkscape" viewBox="-1 -256 1792 1792" id="svg3025" version="1.1" inkscape:version="0.48.3.1 r9886" width="100%" height="100%" sodipodi:docname="book_font_awesome.svg">
  <metadata id="metadata3035">
    <rdf:RDF>
      <cc:Work rdf:about="">
        <dc:format>image/svg+xml</dc:format>
        <dc:type rdf:resource="http://purl.org/dc/dcmitype/StillImage"/>
      </cc:Work>
    </rdf:RDF>
  </metadata>
  <defs id="defs3033"/>
  <sodipodi:namedview pagecolor="#ffffff" bordercolor="#666666" borderopacity="1" objecttolerance="10" gridtolerance="10" guidetolerance="10" inkscape:pageopacity="0" inkscape:pageshadow="2" inkscape:window-width="640" inkscape:window-height="480" id="namedview3031" showgrid="false" inkscape:zoom="0.13169643" inkscape:cx="896" inkscape:cy="896" inkscape:window-x="0" inkscape:window-y="25" inkscape:window-maximized="0" inkscape:current-layer="svg3025"/>
  <g transform="matrix(1,0,0,-1,53.152542,1270.2373)" id="g3027">
    <path d="m 1639,1058 q 40,-57 18,-129 L 1382,23 Q 1363,-41 1305.5,-84.5 1248,-128 1183,-128 H 260 q -77,0 -148.5,53.5 Q 40,-21 12,57 q -24,67 -2,127 0,4 3,27 3,23 4,37 1,8 -3,21.5 -4,13.5 -3,19.5 2,11 8,21 6,10 16.5,23.5 Q 46,347 52,357 q 23,38 45,91.5 22,53.5 30,91.5 3,10 0.5,30 -2.5,20 -0.5,28 3,11 17,28 14,17 17,23 21,36 42,92 21,56 25,90 1,9 -2.5,32 -3.5,23 0.5,28 4,13 22,30.5 18,17.5 22,22.5 19,26 42.5,84.5 23.5,58.5 27.5,96.5 1,8 -3,25.5 -4,17.5 -2,26.5 2,8 9,18 7,10 18,23 11,13 17,21 8,12 16.5,30.5 8.5,18.5 15,35 6.5,16.5 16,36 9.5,19.5 19.5,32 10,12.5 26.5,23.5 16.5,11 36,11.5 19.5,0.5 47.5,-5.5 l -1,-3 q 38,9 51,9 h 761 q 74,0 114,-56 40,-56 18,-130 L 1225,316 Q 1189,197 1153.5,162.5 1118,128 1025,128 H 156 Q 129,128 118,113 107,97 117,70 141,0 261,0 h 923 q 29,0 56,15.5 27,15.5 35,41.5 l 300,987 q 7,22 5,57 38,-15 59,-43 z m -1064,-2 q -4,-13 2,-22.5 6,-9.5 20,-9.5 h 608 q 13,0 25.5,9.5 12.5,9.5 16.5,22.5 l 21,64 q 4,13 -2,22.5 -6,9.5 -20,9.5 H 638 q -13,0 -25.5,-9.5 Q 600,1133 596,1120 z M 492,800 q -4,-13 2,-22.5 6,-9.5 20,-9.5 h 608 q 13,0 25.5,9.5 12.5,9.5 16.5,22.5 l 21,64 q 4,13 -2,22.5 -6,9.5 -20,9.5 H 555 q -13,0 -25.5,-9.5 Q 517,877 513,864 z" id="path3029" inkscape:connector-curvature="0" style="fill:currentColor"/>
  </g>
</svg>